<svg xmlns="http://www.w3.org/2000/svg" version="1.1" xmlns:xlink="http://www.w3.org/1999/xlink" xmlns:svgjs="http://svgjs.com/svgjs" width="512" height="512" x="0" y="0" viewBox="0 0 1580 1580" style="enable-background:new 0 0 512 512" xml:space="preserve" class=""><g><path d="M1127.3 1424.7H452.7c-13.3 0-24-10.7-24-24s10.7-24 24-24h674.7c13.3 0 24 10.7 24 24s-10.8 24-24.1 24z" fill="#000000" data-original="#000000" class=""></path><path d="M1414 1424.7h-35.4c-13.3 0-24-10.7-24-24s10.7-24 24-24h35.4c52.9 0 96-43.1 96-96V1213c0-44.1-29.9-82.4-72.6-93.1l-161.6-40.6c-25.2-6.3-48.3-19.4-66.7-37.8l-204.6-204.6c-17.9-17.9-42.6-28.1-67.9-28.1H361.1c-25.6 0-49.8 10-67.9 28.1L98.1 1031.8C80 1050 70 1074.1 70 1099.7v181c0 52.9 43.1 96 96 96h35.4c13.3 0 24 10.7 24 24s-10.7 24-24 24H166c-79.4 0-144-64.6-144-144v-181c0-38.5 15-74.6 42.2-101.8l195.1-195.1c27.2-27.2 63.4-42.2 101.8-42.2h575.5c38.5 0 74.6 15 101.8 42.2l204.6 204.6c12.3 12.3 27.7 21 44.5 25.2l161.6 40.6c64.1 16.1 108.9 73.5 108.9 139.7v67.8c0 79.4-64.6 144-144 144z" fill="#000000" data-original="#000000" class=""></path><path d="M1093.3 1119.6h-889c-17.9 0-33.8-10.7-40.7-27.2-6.8-16.5-3.1-35.3 9.5-47.9l155.1-155.1c12.1-12.1 28.2-18.7 45.3-18.7h550.6c17.1 0 33.2 6.7 45.3 18.7l155.1 155.1c12.6 12.6 16.4 31.4 9.5 47.9s-22.8 27.2-40.7 27.2zm-879.4-48h869.7L935.4 923.3c-3-3-7-4.7-11.3-4.7H373.5c-4.3 0-8.3 1.7-11.3 4.7z" fill="#000000" data-original="#000000" class=""></path><path d="M461.9 1119.6c-13.3 0-24-10.7-24-24v-201c0-13.3 10.7-24 24-24s24 10.7 24 24v200.9c0 13.3-10.8 24.1-24 24.1zM675.7 1119.6c-13.3 0-24-10.7-24-24v-201c0-13.3 10.7-24 24-24s24 10.7 24 24v200.9c0 13.3-10.7 24.1-24 24.1zM327 1550.4c-82.5 0-149.6-67.1-149.6-149.6s67.1-149.6 149.6-149.6 149.6 67.1 149.6 149.6-67.1 149.6-149.6 149.6zm0-251.3c-56 0-101.6 45.6-101.6 101.6S271 1502.3 327 1502.3s101.6-45.6 101.6-101.6c.1-56-45.5-101.6-101.6-101.6z" fill="#000000" data-original="#000000" class=""></path><path d="M327 1466.7c-36.4 0-66-29.6-66-66s29.6-66 66-66 66 29.6 66 66-29.6 66-66 66zm0-84c-9.9 0-18 8.1-18 18s8.1 18 18 18 18-8.1 18-18-8-18-18-18zM1253 1550.4c-82.5 0-149.6-67.1-149.6-149.6s67.1-149.6 149.6-149.6 149.6 67.1 149.6 149.6-67.1 149.6-149.6 149.6zm0-251.3c-56 0-101.6 45.6-101.6 101.6s45.6 101.6 101.6 101.6 101.6-45.6 101.6-101.6-45.6-101.6-101.6-101.6z" fill="#000000" data-original="#000000" class=""></path><path d="M1253 1466.7c-36.4 0-66-29.6-66-66s29.6-66 66-66 66 29.6 66 66-29.6 66-66 66zm0-84c-9.9 0-18 8.1-18 18s8.1 18 18 18 18-8.1 18-18-8.1-18-18-18zM1534 1267.4h-74.7c-13.3 0-24-10.7-24-24s10.7-24 24-24h74.7c13.3 0 24 10.7 24 24s-10.7 24-24 24zM517.8 1246.9h60.5v60.5h-60.5zM578.3 1186.4h60.5v60.5h-60.5zM638.8 1246.9h60.5v60.5h-60.5zM699.3 1186.4h60.5v60.5h-60.5zM759.8 1246.9h60.5v60.5h-60.5zM820.2 1186.4h60.5v60.5h-60.5zM880.7 1246.9h60.5v60.5h-60.5zM941.2 1186.4h60.5v60.5h-60.5zM1001.7 1246.9h60.5v60.5h-60.5zM753.2 808.6H544.4c-7.6 0-14.8-3.6-19.3-9.7s-5.9-14-3.6-21.3l21.3-69.4c8.3-27 32.9-45.2 61.2-45.2h89.7c28.3 0 52.9 18.2 61.2 45.2l21.3 69.4c2.2 7.3.9 15.2-3.6 21.3-4.6 6.1-11.8 9.7-19.4 9.7zm-176.3-48h143.8l-11.8-38.4c-2.1-6.8-8.2-11.3-15.3-11.3H604c-7.1 0-13.2 4.5-15.3 11.3zM1416.2 569h-253c-13.3 0-24-10.7-24-24s10.7-24 24-24h253c20.4 0 39.6-7.9 54-22.4l3.8-3.8c7.1-7.1 12.7-15.5 16.5-24.8 3.9-9.3 5.8-19.1 5.8-29.2 0-17.5-6.1-34.7-17.2-48.3-1.6-2-3.4-3.9-5.2-5.7l-89.1-89.1c-14.4-14.4-33.6-22.4-54-22.4H618.1c-11.2 0-20.8-7.7-23.4-18.6L580.4 195c-8.2-35.4-31.1-65.9-62.7-83.7l-29.5-16.6v216.9C488.1 427 582.1 521 697.5 521h287.3c13.3 0 24 10.7 24 24s-10.7 24-24 24H697.5c-68.8 0-133.4-26.8-182-75.4s-75.4-113.3-75.4-182v-258c0-8.5 4.5-16.4 11.9-20.7s16.5-4.4 23.9-.2l65.3 36.8c43.3 24.4 74.7 66.2 85.9 114.6l10.1 43.3h693.7c33.2 0 64.4 12.9 87.9 36.4l89.1 89.1c2.9 2.9 5.8 6.1 8.4 9.3 18.1 22.1 28 50 28 78.6 0 16.4-3.2 32.4-9.5 47.6s-15.3 28.7-26.9 40.3l-3.8 3.8c-23.5 23.5-54.7 36.5-87.9 36.5z" fill="#000000" data-original="#000000" class=""></path><path d="M928.5 673.3c-8.5 0-16.3-4.4-20.6-11.7s-4.5-16.3-.5-23.7l94.5-175c4.2-7.8 12.3-12.6 21.1-12.6h185.5c7.9 0 15.4 3.9 19.8 10.5s5.4 14.9 2.5 22.3c-.8 2-19.6 48.9-66.2 95.7-27.4 27.5-58.8 49.4-93.4 65.1-43.1 19.4-91.1 29.4-142.7 29.4zm108.8-175.1-67.2 124.5c62.9-7.8 116.8-34 160.6-77.9 16.5-16.5 28.8-33 37.6-46.6zM1497.7 401.4h-205.2c-40.4 0-78.5-15.5-107.5-43.5-28.9-28-45.6-65.5-47-105.7-.5-13.2 9.9-24.4 23.1-24.8 13.2-.5 24.4 9.9 24.8 23.1 2 57.7 48.9 102.9 106.6 102.9h205.2c13.3 0 24 10.7 24 24s-10.7 24-24 24zM1085.9 362.7h-50.1c-13.3 0-24-10.7-24-24s10.7-24 24-24h50.1c13.3 0 24 10.7 24 24s-10.7 24-24 24zM951.8 362.7h-50.1c-13.3 0-24-10.7-24-24s10.7-24 24-24h50.1c13.3 0 24 10.7 24 24s-10.7 24-24 24zM817.7 362.7h-50.1c-13.3 0-24-10.7-24-24s10.7-24 24-24h50.1c13.3 0 24 10.7 24 24s-10.8 24-24 24zM683.6 362.7h-50.1c-13.3 0-24-10.7-24-24s10.7-24 24-24h50.1c13.3 0 24 10.7 24 24s-10.8 24-24 24zM356.3 280.4H59.7c-13.3 0-24-10.7-24-24s10.7-24 24-24h296.6c13.3 0 24 10.7 24 24s-10.7 24-24 24zM356.3 375.4H160.5c-13.3 0-24-10.7-24-24s10.7-24 24-24h195.8c13.3 0 24 10.7 24 24s-10.7 24-24 24zM356.3 470.5H59.7c-13.3 0-24-10.7-24-24s10.7-24 24-24h296.6c13.3 0 24 10.7 24 24s-10.7 24-24 24z" fill="#000000" data-original="#000000" class=""></path></g></svg>