<svg xmlns="http://www.w3.org/2000/svg" version="1.1" xmlns:xlink="http://www.w3.org/1999/xlink" xmlns:svgjs="http://svgjs.com/svgjs" width="512" height="512" x="0" y="0" viewBox="0 0 64 64" style="enable-background:new 0 0 512 512" xml:space="preserve" class=""><g><path d="M58 43.068h-3v-6.133c4.493-.555 8-4.8 8-9.935 0-4.885-3.535-19-9-19-1.379 0-2.635.9-3.742 2.323A3.442 3.442 0 0 0 49 10.068c-5.465 0-9 14.115-9 19 0 5.138 3.507 9.379 8 9.934v4.066h-.586l-4.586-4.586A8.188 8.188 0 0 0 37 36.068h-1.289a6.253 6.253 0 0 0-4.834-3.916V1.932a1 1 0 0 0-1-1H12a1 1 0 0 0-1 1V10H2a1 1 0 0 0-1 1v42.068a5.006 5.006 0 0 0 5 5h.3a7 7 0 0 0 13.41 0H42.3a7 7 0 0 0 13.41 0H58a5.006 5.006 0 0 0 5-5v-5a5.006 5.006 0 0 0-5-5zm3 7h-2v-2h2zM54 10c3.339 0 7 11.933 7 17 0 4.022-2.614 7.351-6 7.909V19.535l2.555-1.7-1.11-1.664-3 2A1 1 0 0 0 53 19v7l-2.4-1.8-1.2 1.6 3.6 2.7v6.409c-3.386-.558-6-3.887-6-7.909 0-5.067 3.661-17 7-17zM42 29.068c0-5.067 3.661-17 7-17 .031 0 .065.015.1.018A37.517 37.517 0 0 0 45 27a9.936 9.936 0 0 0 6.408 9.573 6.2 6.2 0 0 1-2.408.495c-3.859 0-7-3.589-7-8zM50 39a8.374 8.374 0 0 0 3-.981v5.051h-3zm-8.586.9 3.172 3.172H33v-5h4a6.2 6.2 0 0 1 4.414 1.828zm-26.471 3.168 2.126-2.978A4.844 4.844 0 0 1 21 38.068h1v5zm9.057-5h7v5h-7zm9.494-2h-8.843a4.247 4.247 0 0 1 3.613-2h1.613a4.268 4.268 0 0 1 3.617 2zM28.877 2.932v29.136h-.613a6.246 6.246 0 0 0-5.618 3.472l-.264.528H21a6.846 6.846 0 0 0-5.558 2.86L13 42.348V2.932zM11 12v31.068H6a4.954 4.954 0 0 0-3 1.025V12zM3 48.068h2v2H3zm10 13a5 5 0 1 1 5-5 5.006 5.006 0 0 1-5 5zm36 0a5 5 0 1 1 5-5 5.006 5.006 0 0 1-5 5zm9-5h-2a7 7 0 0 0-14 0H20a7 7 0 0 0-14 0 3 3 0 0 1-3-3v-1h3a1 1 0 0 0 1-1v-4a1 1 0 0 0-1-1H3.78a2.985 2.985 0 0 1 2.22-1h52a2.985 2.985 0 0 1 2.22 1H58a1 1 0 0 0-1 1v4a1 1 0 0 0 1 1h3v1a3 3 0 0 1-3 3z" fill="#000000" data-original="#000000" class=""></path><path d="M20 47.068h2v2h-2zM22 49.068h2v2h-2zM24 47.068h2v2h-2zM30 49.068h2v2h-2zM28 47.068h2v2h-2zM26 49.068h2v2h-2zM32 47.068h2v2h-2zM38 49.068h2v2h-2zM36 47.068h2v2h-2zM34 49.068h2v2h-2zM16 11.932h6a1 1 0 0 0 1-1v-4a1 1 0 0 0-1-1h-6a1 1 0 0 0-1 1v4a1 1 0 0 0 1 1zm1-4h4v2h-4zM19 14.932v4a1 1 0 0 0 1 1h6a1 1 0 0 0 1-1v-4a1 1 0 0 0-1-1h-6a1 1 0 0 0-1 1zm2 1h4v2h-4zM16 27.932h6a1 1 0 0 0 1-1v-4a1 1 0 0 0-1-1h-6a1 1 0 0 0-1 1v4a1 1 0 0 0 1 1zm1-4h4v2h-4zM5 13.932h4v2H5zM5 17.932h4v2H5zM5 22.932h4v2H5zM5 26.932h4v2H5zM5 30.932h4v2H5zM49 53a3 3 0 1 0 3 3 3 3 0 0 0-3-3zm0 4a1 1 0 1 1 1-1 1 1 0 0 1-1 1zM13 53a3 3 0 1 0 3 3 3 3 0 0 0-3-3zm0 4a1 1 0 1 1 1-1 1 1 0 0 1-1 1zM19 31v4h2v-3h5v-2h-6a1 1 0 0 0-1 1zM5 35h4v2H5zM5 39h4v2H5z" fill="#000000" data-original="#000000" class=""></path></g></svg>