<svg xmlns="http://www.w3.org/2000/svg" version="1.1" xmlns:xlink="http://www.w3.org/1999/xlink" xmlns:svgjs="http://svgjs.com/svgjs" width="512" height="512" x="0" y="0" viewBox="0 0 511.247 511.247" style="enable-background:new 0 0 512 512" xml:space="preserve" class=""><g><path d="M479.235 249.017h-16.737c-11.263 0-21.85 4.386-29.812 12.349l-14.697 14.696-36.22-59.572c-9.881-16.253-27.331-26.734-46.191-27.983l-6.041-20.192c-3.808-12.729-15.746-21.62-29.034-21.62h-45.465c-4.143 0-7.5 3.357-7.5 7.5s3.357 7.5 7.5 7.5h45.465c6.711 0 12.74 4.49 14.663 10.919l4.718 15.768H191.193l4.718-15.768c1.923-6.429 7.952-10.919 14.663-10.919h12.502c4.143 0 7.5-3.357 7.5-7.5s-3.357-7.5-7.5-7.5h-12.502c-13.288 0-25.227 8.891-29.034 21.62l-6.026 20.142c-19.247.933-37.148 11.49-47.206 28.033l-36.22 59.572-14.696-14.695c-7.963-7.964-18.55-12.35-29.812-12.35H30.841C13.835 249.017 0 262.853 0 279.858v11.292c0 17.006 13.835 30.842 30.841 30.842h26.647c-4.245 9.729-6.535 20.308-6.535 31.036v83.444c0 14.006 10.535 25.589 24.095 27.262v22.562c0 13.722 11.164 24.886 24.886 24.886h33.117c13.723 0 24.887-11.164 24.887-24.886V463.95h13.64l12.442 12.443c5.448 5.448 12.691 8.448 20.396 8.448h101.246c7.704 0 14.947-3 20.396-8.448L338.5 463.95h13.64v22.347c0 13.722 11.164 24.886 24.887 24.886h33.117c13.722 0 24.886-11.164 24.886-24.886v-22.562c13.56-1.673 24.095-13.256 24.095-27.262v-83.444c0-10.728-2.29-21.307-6.535-31.036h26.647c17.006 0 30.841-13.836 30.841-30.842v-11.292c-.002-17.006-13.837-30.842-30.843-30.842zm-300.942-45.636h153.49c13.74 0 26.761 6.656 34.901 17.578h-42.812a17.48 17.48 0 0 0-10.442 3.489l-3.223 2.426a31.223 31.223 0 0 1-18.656 6.233h-73.027a31.222 31.222 0 0 1-18.655-6.233l-3.226-2.427a17.475 17.475 0 0 0-10.44-3.488h-42.812c8.141-10.922 21.162-17.578 34.902-17.578zM30.841 306.992c-8.734 0-15.841-7.106-15.841-15.842v-11.292c0-8.735 7.106-15.842 15.841-15.842h16.737c7.255 0 14.076 2.825 19.206 7.956l16.642 16.641-9.102 8.894a76.774 76.774 0 0 0-8.208 9.484H30.841zm112.097 179.305c0 5.451-4.436 9.886-9.887 9.886H99.934c-5.451 0-9.886-4.435-9.886-9.886V463.95h52.89zm162.723-16.455H204.415c-3.697 0-7.174-1.44-9.788-4.056l-9.336-9.336 13.339-13.339a6.08 6.08 0 0 1 4.328-1.794h104.16c1.634 0 3.172.637 4.327 1.792l13.34 13.341-9.337 9.336a13.747 13.747 0 0 1-9.787 4.056zm114.367 16.455c0 5.451-4.435 9.886-9.886 9.886h-33.117c-5.451 0-9.887-4.435-9.887-9.886V463.95h52.89zm11.618-37.347h-93.147l-16.448-16.449a20.989 20.989 0 0 0-14.934-6.185h-104.16a20.984 20.984 0 0 0-14.935 6.187l-16.446 16.447H78.43c-6.88 0-12.477-5.598-12.477-12.478V433.1h91.037c4.143 0 7.5-3.357 7.5-7.5s-3.357-7.5-7.5-7.5H65.953v-65.071c0-16.756 6.872-33.082 18.854-44.792l.58-.567 2.729 2.729c8.694 8.693 20.254 13.481 32.549 13.481H316.45c4.143 0 7.5-3.357 7.5-7.5s-3.357-7.5-7.5-7.5H120.665c-8.289 0-16.081-3.228-21.941-9.089l-2.606-2.606 1.003-.98c.448-.438.84-.932 1.166-1.468l35.737-58.778h52.179c.51 0 1.016.169 1.423.476l3.225 2.426c7.927 5.963 17.755 9.247 27.674 9.247h73.027c9.919 0 19.747-3.284 27.675-9.247l3.222-2.425a2.383 2.383 0 0 1 1.425-.477h52.179l35.737 58.778a7.546 7.546 0 0 0 1.166 1.468l1.003.98-2.606 2.606c-5.86 5.861-13.652 9.089-21.941 9.089h-40.999c-4.143 0-7.5 3.357-7.5 7.5s3.357 7.5 7.5 7.5h40.999c12.295 0 23.854-4.788 32.549-13.481l2.728-2.728.579.566c11.983 11.71 18.855 28.036 18.855 44.792V418.1h-91.037c-4.143 0-7.5 3.357-7.5 7.5s3.357 7.5 7.5 7.5h91.037v3.373c0 6.88-5.597 12.477-12.477 12.477zm63.43-157.8c0 8.735-7.106 15.842-15.841 15.842h-35.276a76.701 76.701 0 0 0-8.208-9.484l-9.101-8.894 16.643-16.642c5.129-5.13 11.95-7.955 19.205-7.955h16.737c8.734 0 15.841 7.106 15.841 15.842z" fill="#000000" data-original="#000000" class=""></path><path d="M296.919 361.177h-82.762c-13.229 0-23.99 10.762-23.99 23.99s10.762 23.989 23.99 23.989h82.762c13.229 0 23.99-10.762 23.99-23.989 0-13.229-10.762-23.99-23.99-23.99zm0 32.979h-82.762c-4.957 0-8.99-4.032-8.99-8.989s4.033-8.99 8.99-8.99h82.762c4.957 0 8.99 4.033 8.99 8.99s-4.033 8.989-8.99 8.989zM122.603 336.571h-11.614c-16.818 0-30.501 13.684-30.501 30.502s13.683 30.502 30.501 30.502h36.101c10.068 0 18.259-8.19 18.259-18.259-.001-23.569-19.177-42.745-42.746-42.745zm24.486 46.004h-36.101c-8.547 0-15.501-6.954-15.501-15.502s6.954-15.502 15.501-15.502h11.614c15.299 0 27.745 12.446 27.745 27.745a3.261 3.261 0 0 1-3.258 3.259zM363.987 397.575h36.101c16.818 0 30.501-13.684 30.501-30.502s-13.683-30.502-30.501-30.502h-11.614c-23.569 0-42.745 19.176-42.745 42.745 0 10.069 8.19 18.259 18.258 18.259zm24.487-46.004h11.614c8.547 0 15.501 6.954 15.501 15.502s-6.954 15.502-15.501 15.502h-36.101a3.263 3.263 0 0 1-3.259-3.259c.001-15.298 12.447-27.745 27.746-27.745zM389.54 129.707a22.427 22.427 0 0 0 17.407 8.234c5.128 0 10.15-1.778 14.142-5.007l47.696-38.581c9.646-7.803 11.145-21.997 3.344-31.643a22.35 22.35 0 0 0-15.132-8.227 22.358 22.358 0 0 0-16.513 4.883L410.165 83.89l-2.816-3.434a22.347 22.347 0 0 0-15.184-8.127c-5.979-.587-11.835 1.182-16.482 4.993s-7.532 9.203-8.124 15.185a22.351 22.351 0 0 0 4.992 16.48zm-7.054-35.723a7.446 7.446 0 0 1 2.709-5.062 7.444 7.444 0 0 1 5.493-1.665 7.451 7.451 0 0 1 5.061 2.71l7.542 9.196a7.5 7.5 0 0 0 10.516 1.075l36.111-29.21a7.438 7.438 0 0 1 5.505-1.628 7.456 7.456 0 0 1 5.043 2.742c2.601 3.215 2.101 7.947-1.114 10.548l-47.696 38.581a7.41 7.41 0 0 1-4.708 1.669 7.48 7.48 0 0 1-5.808-2.745l-16.99-20.719a7.444 7.444 0 0 1-1.664-5.492z" fill="#000000" data-original="#000000" class=""></path><path d="M418.089 186.381c51.367 0 93.158-41.791 93.158-93.158S469.456.064 418.089.064c-15.127 0-30.167 3.728-43.496 10.778a7.5 7.5 0 0 0 7.014 13.26c11.177-5.913 23.792-9.038 36.482-9.038 43.097 0 78.158 35.062 78.158 78.158s-35.062 78.158-78.158 78.158-78.158-35.062-78.158-78.158a78.14 78.14 0 0 1 18.872-50.896 7.5 7.5 0 0 0-.801-10.576 7.498 7.498 0 0 0-10.576.801 93.14 93.14 0 0 0-22.495 60.671c0 51.368 41.791 93.159 93.158 93.159z" fill="#000000" data-original="#000000" class=""></path></g></svg>