<svg xmlns="http://www.w3.org/2000/svg" version="1.1" xmlns:xlink="http://www.w3.org/1999/xlink" xmlns:svgjs="http://svgjs.com/svgjs" width="512" height="512" x="0" y="0" viewBox="0 0 32 32" style="enable-background:new 0 0 512 512" xml:space="preserve" class=""><g><path d="M28.5 31h-1c-.827 0-1.5-.673-1.5-1.5v-2a.5.5 0 0 1 1 0v2a.5.5 0 0 0 .5.5h1a.5.5 0 0 0 .5-.5v-2a.5.5 0 0 1 1 0v2c0 .827-.673 1.5-1.5 1.5z" fill="#000000" data-original="#000000" class=""></path><path d="M30.5 31h-14a.5.5 0 0 1 0-1h14a.5.5 0 0 1 0 1zM30.5 28h-14a.5.5 0 0 1 0-1h14a.5.5 0 0 1 0 1zM30.5 25.188a.5.5 0 0 1-.5-.5V23.5c0-1.629-1.348-2.418-9.008-2.493a.5.5 0 0 1 .01-1c6.914.068 9.998.588 9.998 3.493v1.188a.5.5 0 0 1-.5.5z" fill="#000000" data-original="#000000" class=""></path><path d="M30.5 26h-4a.5.5 0 0 1-.5-.5v-1c0-.827.673-1.5 1.5-1.5h3a.5.5 0 0 1 .5.5v2a.5.5 0 0 1-.5.5zM27 25h3v-1h-2.5a.5.5 0 0 0-.5.5zM24.5 26a.5.5 0 0 1-.5-.5c0-.827-.673-1.5-1.5-1.5H19a.5.5 0 0 1 0-1h3.5c1.378 0 2.5 1.122 2.5 2.5a.5.5 0 0 1-.5.5zM28.569 21.706a.5.5 0 0 1-.475-.342l-1.749-5.256c-.12-.353-.541-.706-.899-.752a46.638 46.638 0 0 0-3.966-.317c-.276-.011-.491-.243-.48-.519s.26-.492.519-.48c1.776.069 3.184.214 4.053.324.737.094 1.477.707 1.721 1.425l1.75 5.259a.5.5 0 0 1-.474.658zM19.363 8.026a.5.5 0 0 1-.381-.825l1.31-1.533a.998.998 0 1 0-1.518-1.3l-.894 1.046a.5.5 0 0 1-.76-.65l.894-1.045a1.98 1.98 0 0 1 1.365-.694 1.99 1.99 0 0 1 1.455.475c.405.346.652.831.694 1.363s-.127 1.049-.475 1.456l-1.309 1.533a.502.502 0 0 1-.381.174zM15.5 25h-5.001a.5.5 0 0 1 0-1H15.5c.827 0 1.5-.673 1.5-1.5v-1.24a.5.5 0 0 1 1 0v1.24c0 1.378-1.122 2.5-2.5 2.5z" fill="#000000" data-original="#000000" class=""></path><path d="M4.5 15.5A.5.5 0 0 1 4 15V3.5C4 2.122 5.122 1 6.5 1h9C16.878 1 18 2.122 18 3.5V10a.5.5 0 0 1-1 0V3.5c0-.827-.673-1.5-1.5-1.5h-9C5.673 2 5 2.673 5 3.5V15a.5.5 0 0 1-.5.5zM11.5 31a.5.5 0 0 1-.5-.5v-2.062a.5.5 0 0 1 .435-.496c1.283-.169 2.26-.725 3.075-1.751a.499.499 0 1 1 .783.621c-.892 1.125-1.947 1.784-3.293 2.05V30.5a.5.5 0 0 1-.5.5z" fill="#000000" data-original="#000000" class=""></path><path d="M17.81 13.62a1.99 1.99 0 0 1-1.295-.481 1.997 1.997 0 0 1-.697-1.359 1.976 1.976 0 0 1 .473-1.456l.173-.211c.347-.413.83-.662 1.363-.706a1.997 1.997 0 0 1 1.673 3.297l-.161.199a1.97 1.97 0 0 1-1.529.717zm.181-3.219a.978.978 0 0 0-.758.35l-.176.215a.986.986 0 0 0-.242.731 1 1 0 0 0 .351.682c.408.349 1.069.289 1.4-.109l.167-.206a1.008 1.008 0 0 0-.097-1.426.993.993 0 0 0-.645-.237z" fill="#000000" data-original="#000000" class=""></path><path d="M17.57 17.64c-.481 0-.929-.167-1.295-.481a1.996 1.996 0 0 1-.223-2.815l.761-.881c.336-.4.816-.646 1.347-.69a2.017 2.017 0 0 1 1.465.475c.407.343.655.826.699 1.358a1.984 1.984 0 0 1-.472 1.459l-.762.881a2.03 2.03 0 0 1-1.52.694zm.752-3.873-.083.003a.969.969 0 0 0-.667.341l-.764.885a.983.983 0 0 0-.234.721 1 1 0 0 0 .351.682c.405.348 1.05.295 1.41-.11l.757-.876a.984.984 0 0 0 .233-.726.976.976 0 0 0-.347-.675l-.003-.003a1.005 1.005 0 0 0-.653-.242z" fill="#000000" data-original="#000000" class=""></path><path d="M17.52 21.76A2.007 2.007 0 0 1 16 18.455l.764-.874a2 2 0 0 1 2.821-.22c.406.348.652.833.692 1.368.04.533-.13 1.05-.478 1.457l-.763.874c-.365.44-.921.7-1.516.7zm.77-3.879-.083.003a1 1 0 0 0-.687.351l-.764.874a1.006 1.006 0 0 0 .119 1.412c.406.349 1.07.289 1.399-.109l.769-.88a1 1 0 0 0-.109-1.411.976.976 0 0 0-.644-.24zM1.5 31a.5.5 0 0 1-.5-.5V9.537a.5.5 0 0 1 .5-.5l.142-.007c.47-.03 1.567-.102 2.394.673.64.599.964 1.563.964 2.865v4.473c.833.618 3.602 2.988 3.951 7.421a.501.501 0 0 1-.998.079c-.362-4.602-3.69-6.797-3.724-6.818A.507.507 0 0 1 4 17.301v-4.733c0-1.014-.218-1.732-.648-2.135-.402-.378-.947-.427-1.352-.42V30.5a.5.5 0 0 1-.5.5zM11 17a.499.499 0 0 1-.372-.166c-.146-.163-3.59-4.023-3.59-7.005C7.038 7.718 8.815 6 11 6s3.962 1.718 3.962 3.829c0 2.982-3.444 6.842-3.59 7.005A.499.499 0 0 1 11 17zm0-10C9.367 7 8.038 8.269 8.038 9.829c0 2.069 2.092 4.837 2.962 5.898.87-1.061 2.962-3.829 2.962-5.898C13.962 8.269 12.633 7 11 7z" fill="#000000" data-original="#000000" class=""></path><path d="M11 11.444c-.827 0-1.5-.673-1.5-1.5s.673-1.5 1.5-1.5 1.5.673 1.5 1.5-.673 1.5-1.5 1.5zm0-2a.5.5 0 1 0 0 1 .5.5 0 0 0 0-1zM23.5 13H21a.5.5 0 0 1 0-1h2.5a.5.5 0 0 1 0 1zM12.5 4H9.499a.5.5 0 0 1 0-1H12.5a.5.5 0 0 1 0 1zM11.5 23h-1.001a.5.5 0 0 1 0-1H11.5a.5.5 0 0 1 0 1z" fill="#000000" data-original="#000000" class=""></path></g></svg>