<svg xmlns="http://www.w3.org/2000/svg" version="1.1" xmlns:xlink="http://www.w3.org/1999/xlink" xmlns:svgjs="http://svgjs.com/svgjs" width="512" height="512" x="0" y="0" viewBox="0 0 512 512" style="enable-background:new 0 0 512 512" xml:space="preserve" class=""><g><path d="M231.45 71.195h-17.648c-1.348 0-1.92 1.471-1.92 2.819 0 1.552.695 2.9 1.92 2.9h5.638v22.182c0 1.307 1.594 1.961 3.187 1.961s3.186-.654 3.186-1.961V76.914h5.637c1.226 0 1.92-1.348 1.92-2.9 0-1.349-.572-2.819-1.92-2.819zM259.026 97.993l-7.641-24.919c-.449-1.43-2.287-2.124-4.167-2.124-1.879 0-3.717.694-4.166 2.124l-7.599 24.919c-.041.164-.082.327-.082.449 0 1.512 2.328 2.614 4.085 2.614 1.022 0 1.839-.327 2.084-1.184l1.389-5.107h8.62l1.389 5.107c.246.857 1.063 1.184 2.084 1.184 1.757 0 4.086-1.103 4.086-2.614 0-.123-.042-.286-.082-.449zm-14.791-8.129 2.982-10.948 2.982 10.948h-5.964zM286.762 97.012l-7.068-10.907 6.781-10.866c.286-.45.409-.858.409-1.266 0-1.716-2.328-3.023-4.125-3.023-.899 0-1.512.327-1.921 1.062l-5.433 9.477-5.434-9.477c-.409-.736-1.021-1.062-1.92-1.062-1.797 0-4.126 1.307-4.126 3.023 0 .409.122.817.408 1.266l6.782 10.866-7.067 10.907c-.246.409-.368.776-.368 1.144 0 1.757 2.492 3.145 4.249 3.145.653 0 1.226-.204 1.511-.654l5.965-10.131 5.965 10.131c.245.449.858.654 1.511.654 1.757 0 4.249-1.389 4.249-3.145 0-.368-.122-.736-.368-1.144zM296.931 71.195c-1.594 0-3.186.572-3.186 1.92v25.981c0 1.307 1.593 1.961 3.186 1.961 1.594 0 3.186-.654 3.186-1.961V73.115c0-1.348-1.592-1.92-3.186-1.92z" fill="#000000" data-original="#000000" class=""></path><path d="M492.214 197.086h-30.022c-4.624 0-8.872 1.606-12.245 4.274l-19.566-61.651c-6.423-20.24-25.005-33.838-46.24-33.838h-30.199l-11.177-38.106c-3.068-10.461-12.826-17.768-23.728-17.768H192.963c-10.902 0-20.66 7.306-23.728 17.768l-11.177 38.106H127.88c-21.235 0-39.817 13.598-46.239 33.838l-19.57 61.665c-3.375-2.676-7.631-4.288-12.263-4.288H19.786C8.876 197.086 0 205.962 0 216.872v15.091c0 10.91 8.876 19.785 19.786 19.785h14.877c-10.832 14.196-17.369 32.231-17.369 48.957v53.979c0 20.666 13.894 38.137 32.827 43.595v33.9c0 16.445 13.379 29.824 29.824 29.824h33.094c16.445 0 29.824-13.379 29.824-29.824v-32.121h226.274v32.121c0 16.445 13.379 29.824 29.824 29.824h33.094c16.445 0 29.824-13.379 29.824-29.824v-34.66c19.062-6.445 32.827-24.488 32.827-45.698v-51.116c0-16.727-6.537-34.762-17.369-48.957h14.877c10.91 0 19.786-8.876 19.786-19.785v-15.091c0-10.91-8.876-19.786-19.786-19.786zm-308.588-125.1c1.207-4.116 5.047-6.991 9.337-6.991h126.075c4.29 0 8.13 2.875 9.337 6.991l9.939 33.885H173.686l9.94-33.885zM69.593 227.163c.062-.158.127-.314.179-.478l26.163-82.439c4.437-13.983 17.274-23.377 31.944-23.377h256.262c14.67 0 27.507 9.395 31.945 23.377l26.32 82.931v.018a49.228 49.228 0 0 0-12.074-1.516h-3.337L404 153.226c-3.346-10.543-13.024-17.627-24.085-17.627h-44.869a7.5 7.5 0 0 0 0 14.998h44.869c4.496 0 8.431 2.879 9.791 7.166l21.556 67.917H100.767l21.554-67.916a10.237 10.237 0 0 1 9.791-7.167h168.044a7.5 7.5 0 0 0 0-14.998H132.113a25.178 25.178 0 0 0-24.086 17.628l-22.994 72.452h-3.366c-4.141 0-8.175.532-12.074 1.516v-.032zm-49.807 9.588a4.794 4.794 0 0 1-4.789-4.788v-15.091a4.794 4.794 0 0 1 4.789-4.788h30.022a4.794 4.794 0 0 1 4.788 4.788v16.653a63.555 63.555 0 0 0-4.828 3.226H19.786zM127.867 432.18c-.001 8.176-6.653 14.827-14.828 14.827H79.945c-8.176 0-14.827-6.652-14.827-14.827v-32.121h62.749v32.121zm319.017 0h-.001c0 8.176-6.652 14.827-14.827 14.827h-33.094c-8.176 0-14.827-6.652-14.827-14.827v-32.121h62.336c.138 0 .274-.009.413-.01v32.131zm32.826-131.475v51.116c0 18.329-14.911 33.24-33.24 33.24H62.667c-16.75 0-30.377-13.627-30.377-30.377v-53.979c0-20.257 10.03-38.096 22.921-48.957h1.609l13.996 25.212c6.827 12.297 21.566 20.244 37.549 20.244h23.257a7.5 7.5 0 0 0 0-14.998h-23.257c-10.621 0-20.212-4.917-24.436-12.525l-14.336-25.824v-.785c4.054-1.55 8.136-2.396 12.074-2.396h348.665c4.169 0 8.212.772 12.074 2.161v1.412c0 .028.004.055.004.083l-14.072 25.349c-4.224 7.609-13.816 12.525-24.436 12.525h-237.39a7.5 7.5 0 0 0 0 14.998h237.391c15.983 0 30.722-7.946 37.548-20.244l13.996-25.212h1.665c13.611 11.948 22.598 31.598 22.598 48.957zm17.293-68.742a4.794 4.794 0 0 1-4.789 4.788h-29.982a63.855 63.855 0 0 0-4.828-3.226v-16.652a4.794 4.794 0 0 1 4.788-4.788h30.022a4.794 4.794 0 0 1 4.789 4.788v15.09z" fill="#000000" data-original="#000000" class=""></path><path d="m145.629 346.061-11.53-25.99a14.638 14.638 0 0 0-11.565-8.556l-49.776-6.036a14.54 14.54 0 0 0-12.8 4.962 14.542 14.542 0 0 0-2.995 13.397l7.275 26.235a14.495 14.495 0 0 0 12.488 10.594l54.031 5.792c.539.058 1.074.086 1.606.086 4.638 0 8.935-2.169 11.721-5.99 3.105-4.258 3.682-9.677 1.545-14.494zm-67.018-.276-7.027-25.342 48.904 5.931 11.134 25.093-53.011-5.682zM452.31 310.441a14.546 14.546 0 0 0-12.8-4.963l-49.776 6.036a14.639 14.639 0 0 0-11.565 8.556l-11.531 25.99c-2.137 4.817-1.559 10.235 1.546 14.494 2.786 3.821 7.083 5.99 11.721 5.99.532 0 1.068-.028 1.606-.086l54.031-5.792a14.494 14.494 0 0 0 12.488-10.594l7.275-26.234a14.544 14.544 0 0 0-2.995-13.397zm-18.653 35.344-53.01 5.682 11.133-25.093 48.904-5.931-7.027 25.342zM354.528 346.236l-6.18-24.059a18.183 18.183 0 0 0-17.615-13.661H181.536a18.18 18.18 0 0 0-17.615 13.661l-6.18 24.058c-1.409 5.484-.227 11.197 3.244 15.671s8.708 7.041 14.371 7.041h161.557c5.663 0 10.901-2.566 14.371-7.041 3.471-4.475 4.652-10.187 3.244-15.67zm-15.095 6.479a3.138 3.138 0 0 1-2.521 1.235H175.356a3.134 3.134 0 0 1-2.52-1.235 3.134 3.134 0 0 1-.569-2.749l6.18-24.058a3.19 3.19 0 0 1 3.089-2.396h149.197c1.457 0 2.728.985 3.09 2.396l6.179 24.058a3.137 3.137 0 0 1-.569 2.749z" fill="#000000" data-original="#000000" class=""></path></g></svg>