<svg xmlns="http://www.w3.org/2000/svg" version="1.1" xmlns:xlink="http://www.w3.org/1999/xlink" xmlns:svgjs="http://svgjs.com/svgjs" width="512" height="512" x="0" y="0" viewBox="0 0 66 66" style="enable-background:new 0 0 512 512" xml:space="preserve" class=""><g><path d="M4 63H2a1 1 0 1 0 0 2h2a1 1 0 1 0 0-2zM12.571 63h-2a1 1 0 1 0 0 2h2a1 1 0 1 0 0-2zM21.143 63h-2a1 1 0 1 0 0 2h2a1 1 0 1 0 0-2zM29.714 63h-2a1 1 0 1 0 0 2h2a1 1 0 1 0 0-2zM38.285 63h-2a1 1 0 1 0 0 2h2a1 1 0 1 0 0-2zM46.857 63h-2a1 1 0 1 0 0 2h2a1 1 0 1 0 0-2zM55.429 63h-2a1 1 0 1 0 0 2h2a1 1 0 1 0 0-2zM64 63h-2a1 1 0 1 0 0 2h2a1 1 0 1 0 0-2zM64.365 39.765l-6.675-2.623-8.302-7.11a7.278 7.278 0 0 0-4.24-1.735v-4.252a1 1 0 0 0-1-1H31.653a1 1 0 0 0-1 1v4.306c-6.022.668-11.686 5.923-13.921 8.25-.919.96-.805.511-14.345 4.993A1.994 1.994 0 0 0 1 43.498v7.872c0 1.103.897 2 2 2h5.255c.482 2.977 3.064 5.26 6.175 5.26 3.112 0 5.693-2.283 6.176-5.26h24.792c.482 2.977 3.064 5.26 6.176 5.26 3.111 0 5.692-2.283 6.175-5.26H64a1 1 0 0 0 1-1V40.695a.999.999 0 0 0-.635-.93zm-31.712-14.72h10.495v3.229H32.653zM14.43 56.629a4.267 4.267 0 0 1-4.262-4.258v-.002l-.001-.004c.001-2.35 1.912-4.262 4.263-4.262s4.264 1.913 4.264 4.263-1.914 4.263-4.264 4.263zm37.143 0c-2.351 0-4.264-1.913-4.264-4.263s1.913-4.263 4.264-4.263a4.267 4.267 0 0 1 4.261 4.249c0 .006-.003.011-.003.017l.003.015a4.266 4.266 0 0 1-4.261 4.245zm6.176-5.26c-.48-2.98-3.063-5.266-6.176-5.266-3.114 0-5.697 2.286-6.177 5.266h-24.79c-.48-2.98-3.063-5.266-6.177-5.266-3.113 0-5.696 2.286-6.176 5.266H3v-3.013h1.685a1 1 0 1 0 0-2H3v-2.858c12.922-4.351 13.66-3.93 15.175-5.513 1.704-1.774 7.715-7.572 13.488-7.711h12.969c1.272 0 2.498.452 3.454 1.275l8.432 7.221c.236.202.038.054 6.482 2.606v2.007h-1.31a1 1 0 1 0 0 2H63v5.985h-5.251z" fill="#000000" data-original="#000000" class=""></path><path d="M45.841 33.401a3.079 3.079 0 0 0-1.997-.734h-11.59c-3.938.095-8.385 3.789-11.043 7.407a1 1 0 0 0 .806 1.592h29.717a1 1 0 0 0 .705-1.709zm-13.563 1.266h3.597v5H24.11c2.626-2.956 5.815-4.942 8.168-5zm5.597 5v-5h5.969c.258 0 .506.09.643.203l4.823 4.797zM52.1 51.366h-1.053a1 1 0 1 0 0 2H52.1a1 1 0 1 0 0-2zM14.956 51.366h-1.053a1 1 0 1 0 0 2h1.053a1 1 0 1 0 0-2zM27.108 45.633a1 1 0 0 0-1-1h-2a1 1 0 1 0 0 2h2a1 1 0 0 0 1-1zM28.04 47.661h-2a1 1 0 1 0 0 2h2a1 1 0 1 0 0-2zM32.108 45.633a1 1 0 0 0-1-1h-2a1 1 0 1 0 0 2h2a1 1 0 0 0 1-1zM33.04 47.661h-2a1 1 0 1 0 0 2h2a1 1 0 1 0 0-2zM37.108 45.633a1 1 0 0 0-1-1h-2a1 1 0 1 0 0 2h2a1 1 0 0 0 1-1zM38.04 47.661h-2a1 1 0 1 0 0 2h2a1 1 0 1 0 0-2zM42.108 45.633a1 1 0 0 0-1-1h-2a1 1 0 1 0 0 2h2a1 1 0 0 0 1-1zM43.04 47.661h-2a1 1 0 1 0 0 2h2a1 1 0 1 0 0-2zM5 13.552h9.319a3.997 3.997 0 1 0-.023-7.997A4.924 4.924 0 0 0 9.383 1a4.914 4.914 0 0 0-4.91 4.591A3.99 3.99 0 0 0 1 9.552c0 2.206 1.794 4 4 4zm.349-5.962a1 1 0 0 0 1.159-1.157C6.18 4.552 7.636 3 9.383 3c1.847 0 3.262 1.7 2.856 3.555a1.003 1.003 0 0 0 1.347 1.142 1.993 1.993 0 0 1 2.733 1.854c0 1.103-.897 2-2 2H5c-1.103 0-2-.897-2-2A1.989 1.989 0 0 1 5.349 7.59zM30.396 8.011h.056a2.891 2.891 0 0 1 2.886 2.846 1 1 0 0 0 1 .986h.014a1 1 0 0 0 .986-1v-.015A2.891 2.891 0 0 1 38.184 7.9a1 1 0 0 0 .985-1.014c-.008-.553-.49-.972-1.015-.986a4.882 4.882 0 0 0-3.856 1.981c-.914-1.159-2.301-1.867-3.915-1.87a1 1 0 0 0 .013 2zM48.873 14h11.929A4.203 4.203 0 0 0 65 9.802a4.178 4.178 0 0 0-2.577-3.866c.159-5.059-6.919-6.798-9.197-2.405a3.835 3.835 0 0 0-4.614 2.089c-2.221.119-3.937 1.977-3.937 4.182A4.203 4.203 0 0 0 48.873 14zm.312-6.36a1.002 1.002 0 0 0 1.123-.796 1.83 1.83 0 0 1 2.873-1.129.997.997 0 0 0 .922.13.997.997 0 0 0 .63-.686c.946-3.575 6.352-2.366 5.622 1.305a1.002 1.002 0 0 0 .814 1.181A2.184 2.184 0 0 1 63 9.802 2.2 2.2 0 0 1 60.802 12H48.873a2.2 2.2 0 0 1-2.198-2.198 2.177 2.177 0 0 1 2.51-2.162z" fill="#000000" data-original="#000000" class=""></path></g></svg>